<mxfile host="app.diagrams.net" modified="2023-12-27T14:57:01.726Z" agent="Mozilla/5.0 (Windows NT 10.0; Win64; x64) AppleWebKit/537.36 (KHTML, like Gecko) Chrome/120.0.0.0 Safari/537.36" version="22.1.13" etag="WT5NHBSZx2kaNBw5HBYh" type="github">
  <diagram name="Page-1" id="51dxT-VPV_qz6qAJbBLe">
    <mxGraphModel>
      <root>
        <mxCell id="0" />
        <mxCell id="1" parent="0" />
      </root>
    </mxGraphModel>
  </diagram>
</mxfile>
